Motion_pu04
version=1
nRows=8
nColumns=43
inDegrees=yes
endheader
time	pelvis_tilt	pelvis_list	pelvis_rotation	pelvis_tx	pelvis_ty	pelvis_tz	hip_flexion_r	hip_adduction_r	hip_rotation_r	knee_angle_r	ankle_angle_r	subtalar_angle_r	mtp_angle_r	hip_flexion_l	hip_adduction_l	hip_rotation_l	knee_angle_l	ankle_angle_l	subtalar_angle_l	mtp_angle_l	lumbar_extension	lumbar_bending	lumbar_rotation	neck_flexion	neck_lateral_bending	neck_rotation	arm_flex_r	arm_add_r	arm_rot_r	elbow_flex_r	pro_sup_r	wrist_flex_r	wrist_dev_r	hand_finger_flex_r	arm_flex_l	arm_add_l	arm_rot_l	elbow_flex_l	pro_sup_l	wrist_flex_l	wrist_dev_l	hand_finger_flex_l
      1.88750000	      1.89166648	     -5.53773992	    -89.56212785	     -0.00241592	      1.31493861	      1.11829942	     13.43982582	     -7.35300533	    -11.01955378	    -29.81526855	     -8.59041847	     -9.15094092	     -4.44315750	     10.40740552	     -2.97394293	    -11.64638496	    -38.78223381	     15.84089570	      1.16427799	    -12.75661171	     15.72876637	     -3.59462791	      4.36674150	      0.39836277	      3.29679154	     -2.19338468	   -357.60193914	    -39.06017531	   -406.52970212	    142.54048140	    132.88267497	     -4.32214397	     -0.53340054	     82.56295602	     25.52223399	    -33.37088381	    -17.91357612	    142.61145322	    150.44925077	     -7.11344772	     13.27419512	     90.00021046
      1.89000000	      1.89974747	     -5.64415917	    -89.52695118	     -0.00244183	      1.31228870	      1.11853002	     13.35335088	     -7.38335724	    -11.00826037	    -29.90975560	     -8.73118019	     -9.15108617	     -4.52313054	     10.32428090	     -2.97189604	    -11.63407923	    -38.81651491	     15.52563636	      1.15237986	    -12.79824451	     15.88736023	     -3.68543701	      4.43594691	     -0.40870843	      3.53183055	     -2.32363040	   -357.00547012	    -39.36172374	   -406.12625741	    142.01762595	    132.82999114	     -3.85994698	     -0.42428548	     82.21374775	     26.59786814	    -33.50734842	    -16.93961886	    141.96891333	    150.55644190	     -6.78126749	     13.41460084	     90.00021046
      1.89250000	      1.91733262	     -5.71178615	    -89.51654840	     -0.00251294	      1.30961117	      1.11871988	     13.30167818	     -7.41517941	    -11.02151248	    -29.96843033	     -8.84863407	     -9.20167283	     -4.64720030	     10.24869640	     -2.95664995	    -11.62550587	    -38.75689538	     15.17610890	      1.08749408	    -12.84751968	     16.07546617	     -3.76803849	      4.60720074	     -0.95925583	      3.71038252	     -2.48935114	   -356.50675750	    -39.63580992	   -405.91261046	    141.56809886	    132.72202620	     -3.18072373	     -0.28423850	     81.62655084	     27.70036236	    -33.44858162	    -16.03281865	    141.23614608	    150.77123446	     -6.32208422	     13.75958191	     90.00021046
      1.89500000	      1.86661687	     -5.75448617	    -89.52564382	     -0.00260080	      1.30684321	      1.11871410	     13.29731973	     -7.38112521	    -11.06411632	    -30.04806663	     -8.91652963	     -9.18411670	     -4.67070419	     10.21257397	     -3.00474639	    -11.60717406	    -38.70314132	     15.06739999	      1.09171960	    -12.86121466	     16.20474925	     -3.76955785	      4.64277925	     -0.85246643	      3.66560523	     -2.51651530	   -355.82018552	    -39.86122509	   -405.55151252	    141.06071418	    132.75315275	     -3.02797243	     -0.26421730	     81.52787196	     28.66601173	    -33.43475673	    -15.48156497	    140.70696115	    150.77698888	     -6.19930020	     13.76611715	     90.00021046
      1.89750000	      1.86302656	     -5.87496325	    -89.48528604	     -0.00270315	      1.30417335	      1.11892966	     13.19561731	     -7.39150619	    -11.05795535	    -30.13933031	     -9.04740440	     -9.19728957	     -4.74351802	     10.11470038	     -3.02753046	    -11.60177501	    -38.73772971	     14.69722181	      1.10051149	    -12.90407518	     16.32461321	     -3.85358682	      4.68511728	     -1.59063816	      3.86624814	     -2.63432074	   -355.16040457	    -40.12877190	   -405.11961801	    140.53234865	    132.67794874	     -2.63175429	     -0.21623196	     81.23286284	     29.71894357	    -33.54812330	    -14.53543719	    140.06085570	    150.84353710	     -5.89551227	     13.89279982	     90.00021046
      1.90000000	      1.91749736	     -5.94694663	    -89.45419472	     -0.00281130	      1.30145707	      1.11911679	     13.14392210	     -7.45799884	    -11.08605974	    -30.21061946	     -9.20983181	     -9.42867852	     -5.18073281	     10.02312017	     -2.95986621	    -11.61194155	    -38.62459812	     14.13972224	      0.77089974	    -12.94316669	     16.46079725	     -4.00476157	      5.02750007	     -1.82923040	      4.00187607	     -2.99905383	   -354.99666704	    -40.37466004	   -405.51085418	    140.28198593	    132.40850514	     -0.97325009	      0.05916487	     79.33951821	     31.11969481	    -33.35879628	    -13.28108826	    139.42125991	    151.38154798	     -4.70037899	     15.17110113	     90.00021046
      1.90250000	      1.86381689	     -6.02591053	    -89.43458701	     -0.00293735	      1.29870349	      1.11924242	     13.08591367	     -7.41269271	    -11.10893178	    -30.28937921	     -9.28919474	     -9.37163673	     -5.21743356	      9.96072115	     -3.02914055	    -11.56313801	    -38.62285800	     13.98164420	      0.85237910	    -12.95682191	     16.58055333	     -4.02021065	      5.03424870	     -2.08759835	      4.08237657	     -3.04881023	   -354.28459806	    -40.63049554	   -405.02028116	    139.75507649	    132.50287603	     -0.88135359	      0.05915095	     79.22470411	     32.07357677	    -33.36669217	    -12.58655884	    138.76030078	    151.31712654	     -4.60855972	     15.10911129	     90.00021046
      1.90500000	      1.82407524	     -6.08382064	    -89.40398980	     -0.00289950	      1.29594389	      1.11936539	     13.03062444	     -7.40056263	    -11.15217067	    -30.33543365	     -9.37180978	     -9.33955381	     -5.24486126	      9.89375913	     -3.06002852	    -11.53608225	    -38.56519076	     13.78871272	      0.90604106	    -12.97531784	     16.71823775	     -4.03283879	      5.03921035	     -2.26293035	      4.12804845	     -3.08117685	   -353.59653304	    -40.85489037	   -404.59647938	    139.22014653	    132.55567744	     -0.77967982	      0.07314185	     79.15259989	     33.01861983	    -33.24761653	    -12.07192169	    138.11291312	    151.29581079	     -4.51426774	     15.09001270	     90.00021046
